<?xml version="1.0" encoding="UTF-8"?>
<svg id="Layer_2" data-name="Layer 2" xmlns="http://www.w3.org/2000/svg" viewBox="0 0 47.07 65.26">
  <defs>
    <style>
      .cls-1, .cls-2 {
        fill: #121827;
      }

      .cls-1, .cls-3 {
        opacity: .8;
      }

      .cls-4 {
        fill: #326389;
      }

      .cls-5 {
        fill: #606060;
      }

      .cls-6 {
        fill: #6ec3c3;
      }

      .cls-7 {
        fill: #e27961;
      }

      .cls-8 {
        fill: #fff;
      }

      .cls-9 {
        fill: #ededed;
      }
    </style>
  </defs>
  <g id="Layer_1-2" data-name="Layer 1">
    <g>
      <path class="cls-2" d="M7.82,0h33.1v43.35l1.33,1.72s.23,1.72.31,1.96-.23.39-1.17.94-2.82,1.72-3.21,1.72-1.8-.78-2.58-.78-.78.31-.7,1.17.78,1.41.16,2.19-.94,1.49-1.72,1.49-.47.78-1.17,1.88-1.17,1.33-1.8,1.33-.31-.08-.7.55-.78,1.17-.78,2.58-2.21,1.02-1.93,1.72-.58.16-.65-.39-2.03-.55-2.11-1.41-.63-1.96-1.17-1.96.55,1.33-.16,1.33-1.59.31-1.07.86-.81-.47-.81.63-.55,1.88-.86,1.96.08.78-.39.78-.39-.94-1.1-.94-.23-1.17-1.17-1.17-.47,1.02-2.27,1.1-.7,2.58-1.72,2.58-.55-1.96-2.11-1.96-1.33-.78-2.11-.78-.78.86-1.41.86-.23-1.56-.63-1.56.23,2.35-.7,2.58.63-1.25-.39-1.25-1.33.94-1.8.31-1.64-1.88-1.72-.7,1.1,1.8.47,2.11-.94.63-1.56.39-1.8-.31-1.41-.86.21,0,1.56-.16-2.03.31-1.25-.78,1.33-1.96,1.25-2.35.78-.39.63-1.1.86-1.8.16-2.11-.08-1.64,1.25-1.72,1.96-1.72,1.88-2.5.7-.16,1.41-.08-.31-1.56-.16-2.19.16-.55.55-.94.94-1.41.94-1.41c0,0-.63-.63-.63-1.49s.94-2.5.16-2.97-.78-1.56-1.1-1.64.23-1.25.16-1.96.86-1.64.86-1.64l.08-39.28Z"/>
      <path class="cls-9" d="M29.77,48.23c-.29.31-.5.48-.83.71.09-.04.06-.22.07-.23.04-.03.3-.09.33-.14.01-.02-.08-.1,0-.2.08-.09.29-.17.42-.15Z"/>
      <path class="cls-5" d="M26.32,26.89c-.08,0-.44.09-.54.12.14-.13.35-.12.54-.12Z"/>
      <g>
        <g>
          <g>
            <g>
              <path class="cls-2" d="M7.33,28.31c-2.23-2.53-5.16-6.79-4.59-10.32.73-4.53,6.07-5.21,9.82-4.88.31.03,2.47.27,2.56.36.06.06-.44,1.36-.43,1.59-2.71-.48-7.3-.92-9.4,1.23-2.97,3.04,1.09,8.41,3.2,10.8.48.22.91.66,1.08,1.15,4.22,4.3,8.7,7.36,14.11,9.98-.65.3-1.94.75-1.94.75-4.91-2.56-9.35-5.32-13.3-9.27l-.03-.16c-.34-.39-.75-.85-1.08-1.23Z"/>
              <path class="cls-2" d="M21.65,40.12l-.41-.21c-4.24-2.21-9.16-5.06-13.56-9.46l-.23-.23-.04-.2c-.19-.22-.4-.45-.59-.67l-.3-.34c-1.69-1.91-5.55-6.84-4.85-11.2.67-4.15,4.76-6.31,10.96-5.78,2.79.24,3.02.47,3.23.67.49.49.32,1.01.07,1.8-.06.18-.15.47-.19.61l.04,1.22-1.29-.23c-4.15-.73-7.15-.4-8.45.93-2.37,2.42,1.61,7.47,3.11,9.2.57.32,1.05.83,1.32,1.41,3.92,3.97,8.15,6.95,13.67,9.62l2.05.99-2.07.94c-.69.31-1.97.76-2.03.78l-.44.15Z"/>
            </g>
            <g>
              <path class="cls-2" d="M27.03,39.35c4.07,1.51,8.58,2.97,12.95,2.26s4.93-3.71,3.33-7.27c-2.02.21-3.32-1.89-2.35-3.66-.25-.37-.55-.72-.92-.99v-.16c.41-.42.83-.86,1.22-1.3.16.25.97,1.4,1.15,1.48.53.23,1.11-.18,1.91.4.73.54,1.02,1.44.88,2.32-.05.31-.42.82-.42.95,0,.17.35.78.44,1.01,2.57,7.29-3.01,9.56-9.26,9.05-4.36-.36-7.22-1.72-11.19-3.11l2.25-.99Z"/>
              <path class="cls-2" d="M37.66,44.58c-.57,0-1.16-.03-1.77-.08-3.65-.3-6.24-1.25-9.24-2.36-.71-.26-1.44-.53-2.22-.8l-2.56-.89,5.13-2.25.4.15c3.83,1.42,8.25,2.88,12.41,2.2,1.53-.25,2.53-.79,2.98-1.62.54-1.01.25-2.39-.19-3.55-.99-.12-1.87-.65-2.44-1.51-.6-.9-.74-2.01-.42-3.04-.11-.11-.21-.21-.32-.29l-.42-.31-.04-1.14.32-.33c.48-.48.85-.88,1.19-1.26l.94-1.05.76,1.19c.14.21.54.77.77,1.06.03,0,.06,0,.09,0,.43-.02,1.14-.05,1.93.53,1.01.74,1.51,2.02,1.31,3.35-.05.3-.18.58-.31.82.02.03.03.07.05.1.1.2.19.4.23.52,1.1,3.11.92,5.64-.53,7.52-1.52,1.97-4.34,3.02-8.05,3.02ZM42.14,30.75l-.24.44c-.27.5-.26,1.06.04,1.51.28.42.74.62,1.27.57l.53-.05c.04-.25.15-.46.27-.68.04-.08.12-.23.15-.3.07-.53-.1-1-.47-1.27-.18-.13-.27-.13-.58-.12-.26,0-.6.02-.98-.1ZM44.16,32.27s0,0,0,0c0,0,0,0,0,0Z"/>
            </g>
            <g>
              <path class="cls-2" d="M24.33,16.41h.33c.6.28,1.16.57,1.68.86-.03.16.26.23.39.3,1.77.96,3.56,1.87,5.24,2.98.08.1.35,2.04.29,2.13-2.47-1.67-5.07-3.18-7.78-4.43-.08-.04-.18-.02-.21-.03-.68-.06-1.51-.42-2.02-.86-1.26-.5-2.5-1-3.8-1.42-.14-.04-.78-.14-.81-.17-.07-.07.34-1.53.48-1.58.12-.04,2.08.61,2.37.71,1.27.44,2.62.97,3.85,1.51Z"/>
              <path class="cls-2" d="M32.52,24.15l-.86-.58c-2.49-1.68-5.01-3.12-7.5-4.29-.02,0-.04,0-.07,0-.82-.09-1.73-.47-2.4-.99-1.21-.48-2.36-.94-3.58-1.33-.03,0-.16-.03-.28-.05-.47-.08-.71-.13-.97-.39-.45-.46-.31-1.04-.22-1.42.34-1.42.65-1.76,1.12-1.91.34-.11.48-.16,3.05.72,1.15.39,2.43.89,3.72,1.45h.36s.23.11.23.11c.61.3,1.19.6,1.73.89l.66.37v.08c.24.14.5.27.75.41,1.42.76,2.89,1.55,4.28,2.47l.14.09.1.13c.17.21.26.36.43,1.59.15,1.13.17,1.46-.1,1.83l-.61.84Z"/>
            </g>
            <g>
              <path class="cls-2" d="M40.12,27.08c.35.57-.42,1.07-1.15,1.23-.13-.31-.47-.6-.72-.83-.86-.82-1.78-1.59-2.7-2.35-.18-.4-.08-.84-.11-1.26-.06-.87-.45-1.22.5-.5,1.49,1.12,2.84,2.42,4.19,3.7Z"/>
              <path class="cls-2" d="M38.32,29.54l-.34-.82c-.04-.07-.24-.26-.35-.36l-.12-.11c-.86-.81-1.78-1.58-2.65-2.3l-.19-.16-.1-.22c-.22-.49-.21-.97-.21-1.32,0-.1,0-.2,0-.3-.01-.17-.05-.32-.07-.45-.05-.24-.21-.98.45-1.41.68-.44,1.27,0,1.83.43,1.45,1.1,2.77,2.35,4.05,3.57l.33.31.07.12c.28.45.32.98.11,1.46-.41.96-1.6,1.29-1.95,1.36l-.87.19Z"/>
            </g>
          </g>
          <g>
            <g>
              <path class="cls-2" d="M40.12,27.08c1.99-2.26,5.09-6.37,3.97-9.55s-5.9-3.05-8.54-2.77c-.26.03-1.7.35-1.77.29-.02-.02-.07-.45-.11-.58-.05-.16-.32-.85-.32-.9,0-.11,1.21-.28,1.41-.31,3.35-.48,8.65-.37,10.5,3.02,2.12,3.89-.81,8.78-3.35,11.64-.48.53-2.17,2.12-2.25,2.19-3.8,3.67-8.03,6.52-12.72,8.91-.1.05-8.28,3.99-13.88,4.37-.16.05-.37.53-.52.71-.84.97-2.49.99-3.35.03-.15-.16-.35-.67-.43-.72-.14-.09-.94-.18-1.2-.24-6.03-1.59-5.78-6.54-3.04-11.13.8-1.33,1.8-2.54,2.8-3.73.43.14,1,.78,1.08,1.23v.21c-3.25,3.45-7.08,10.71.23,11.9.94-1.85,3.47-1.9,4.4-.02,3.01-.3,6.01-1.31,8.92-2.35,0,0,.93-.31,2.23-.87,5.44-2.47,10.59-5.8,14.77-10.09.39-.4.79-.76,1.15-1.23Z"/>
              <path class="cls-2" d="M10.86,45.9c-.95,0-1.84-.38-2.45-1.06-.13-.15-.24-.33-.33-.51-.07-.01-.15-.02-.21-.03-.23-.04-.45-.08-.57-.11-2.67-.71-4.43-2.06-5.23-4.03-.95-2.34-.4-5.42,1.54-8.68.87-1.46,1.99-2.79,2.9-3.87l.46-.55.68.22c.81.26,1.65,1.22,1.81,2.05l.02.1v.73s-.29.31-.29.31c-2.24,2.37-4.23,6.03-3.52,8.14.3.89,1.14,1.51,2.48,1.85.67-.81,1.66-1.29,2.72-1.29h.02c1.07,0,2.04.49,2.69,1.32,2.72-.37,5.45-1.29,8.02-2.22.03-.01.94-.31,2.17-.85,5.74-2.6,10.6-5.92,14.44-9.86.1-.11.21-.21.32-.32.27-.27.53-.53.76-.82l.04-.05c3.11-3.54,4.45-6.56,3.76-8.49-.9-2.54-5.91-2.22-7.43-2.07-.09.01-.29.05-.53.1-1.28.25-1.66.33-2.11-.12-.25-.25-.29-.52-.34-.83-.01-.08-.03-.17-.04-.22-.01-.04-.06-.17-.12-.31-.21-.55-.26-.7-.24-.96.09-.95.98-1.08,2.32-1.28,2.1-.3,9.13-.94,11.59,3.57,2.8,5.14-1.96,11.14-3.49,12.86-.31.34-1.03,1.04-2.21,2.16l-.1.09c-3.64,3.53-7.89,6.5-12.98,9.09-.08.04-8.01,3.87-13.81,4.44-.08.13-.16.26-.26.38-.6.69-1.5,1.1-2.47,1.1-.01,0-.02,0-.03,0ZM10.02,43.44c.21.21.51.34.85.33.35,0,.67-.14.88-.37.01-.02.04-.07.08-.13.13-.22.28-.47.51-.66l-.25-.5c-.25-.5-.69-.79-1.21-.79h0c-.54,0-1.02.31-1.28.83l-.21.4c.26.18.38.42.52.69.04.07.08.15.11.21Z"/>
            </g>
            <g>
              <path class="cls-2" d="M22.24,17.35c.7.28,1.4.58,2.02.86-1.96.86-3.86,1.88-5.69,3-.62.38-1.46,1.05-2.06,1.33-.09.04-.14.1-.26.07.22-.45.09-1.73.36-2.05,1.81-1.18,3.7-2.21,5.62-3.21Z"/>
              <path class="cls-2" d="M16.32,23.69c-.1,0-.2-.01-.31-.04l-1.27-.31.56-1.18c.01-.06.04-.39.05-.59.05-.65.09-1.26.47-1.7l.1-.11.12-.08c1.95-1.27,3.98-2.36,5.71-3.26l.43-.23.45.18c.7.28,1.41.59,2.07.89l2.16.99-2.17.95c-1.81.79-3.62,1.75-5.56,2.93-.22.13-.47.31-.73.49-.48.34-.98.69-1.44.9-.08.05-.32.17-.64.17Z"/>
            </g>
            <g>
              <path class="cls-2" d="M24.33,16.41c1.06-.49,2.15-.94,3.25-1.33.33-.12,2.69-.96,2.81-.87.09.06.56,1.49.5,1.55-.85.21-1.71.46-2.54.74-.61.21-1.4.64-2,.77-.09.02-.17.06-.27.02-.58-.29-1.16-.62-1.75-.88Z"/>
              <path class="cls-2" d="M26.17,18.38c-.16,0-.36-.03-.56-.13-.23-.11-.46-.23-.69-.35-.35-.19-.69-.36-1.02-.51l-2.17-.95,2.16-.99c1.14-.52,2.26-.98,3.34-1.37,3.03-1.08,3.27-1.1,3.78-.75.62.43.95,2.24.96,2.26l.06.48-.55.65-.32.08c-.77.18-1.57.42-2.45.72-.21.07-.46.18-.73.3-.46.2-.93.4-1.38.51-.07.02-.22.06-.41.06Z"/>
            </g>
            <g>
              <path class="cls-2" d="M8.48,27.08c1.5-1.47,3.04-2.9,4.76-4.11l-.16,2.15c-1.26.94-2.38,2.03-3.52,3.11-.36-.36-.72-.75-1.08-1.15Z"/>
              <path class="cls-2" d="M9.54,29.73l-.74-.75c-.33-.34-.73-.75-1.12-1.19l-.67-.76.72-.71c1.45-1.43,3.05-2.92,4.89-4.22l1.85-1.3-.36,4.89-.39.29c-1.14.85-2.17,1.83-3.25,2.87l-.93.89Z"/>
            </g>
          </g>
          <g>
            <g>
              <path class="cls-2" d="M33.13,32.34l.15-2.34c.07-5.17-.34-10.41-1.88-15.36-1-3.22-3.74-9.98-8.13-8.77-.18.05-1.1.44-1.16.53-.06.1.11.39.13.53.13,1.2-.66,2.33-1.91,2.41-.27.02-.7-.15-.86,0-.11.1-.61,1.08-.72,1.3-2.96,5.85-3.62,13.8-3.42,20.29,0,.24.17,1.28.07,1.4-.04.05-.92-.63-1-.69-.34-.28-.61-.38-.66-.86-.18-1.75-.04-4.54.08-6.34.3-4.61,1.3-10.02,3.34-14.18.21-.42,1.05-1.71,1.12-1.99.06-.24-.12-.62-.13-.92-.03-.99.68-2.01,1.7-2.13.34-.04.84.1,1.06.06.17-.03,1.23-.74,1.59-.87,2.6-.96,4.95.31,6.65,2.25,3.99,4.56,5.53,13.44,5.73,19.35.05,1.33.13,3.4-.01,4.68-.02.18-.06.41-.16.56-.05.07-1.19.92-1.32.99-.08.05-.13.11-.24.09Z"/>
              <path class="cls-2" d="M15.35,33.42c-.27,0-.64-.13-1.63-.94-.05-.04-.1-.08-.14-.11-.3-.23-.81-.61-.9-1.46-.14-1.39-.12-3.53.07-6.52.21-3.24.93-9.44,3.44-14.58.1-.21.3-.54.52-.91.14-.23.36-.59.47-.81,0-.02,0-.03-.01-.05-.04-.18-.1-.39-.11-.64-.05-1.6,1.14-3.05,2.64-3.22.31-.03.61,0,.86.04.03,0,.06,0,.09.01.11-.06.26-.15.38-.22.5-.29.82-.48,1.07-.57,2.68-1,5.53-.07,7.82,2.54,4.07,4.65,5.77,13.39,6,20.02v.27c.06,1.39.12,3.29-.02,4.57-.04.32-.11.74-.38,1.08-.22.3-1.59,1.24-1.64,1.27-.3.21-.64.28-1,.2l-.89-.2.2-3.25c.08-5.82-.52-10.73-1.83-14.97-.47-1.53-3.03-9.1-6.83-8.06-.04.01-.13.05-.24.1.05.86-.23,1.71-.77,2.35-.54.64-1.3,1.02-2.15,1.07-.11,0-.22,0-.32,0-.11.2-.25.46-.38.72-3.04,6-3.48,14.07-3.31,19.78,0,.06.02.17.03.3.09.87.15,1.35-.17,1.77l-.27.37-.46.06c-.06,0-.11.01-.17.01ZM19.69,8.22c.18,0,.34.02.46.04.05,0,.1.02.15.02.23-.02.45-.12.62-.32.19-.22.28-.52.27-.84v-.02c-.07-.16-.17-.43-.15-.75-.25.04-.5,0-.74-.03-.11-.01-.29-.04-.35-.03-.44.05-.76.59-.75,1.04,0,.05.03.12.04.19.05.2.11.45.1.73.12-.03.24-.04.35-.04Z"/>
            </g>
            <g>
              <path class="cls-2" d="M27.72,49.06c1.52-1.64,2.44-3.75,3.24-5.81.2.07,1.46.28,1.52.33.15.16-1.22,3.05-1.43,3.44-1.1,2.05-3.01,4.6-5.37,5.22-5.05,1.32-8.3-4.74-9.63-8.66.23.05,1.52-.41,1.58-.36.08.06.59,1.59.71,1.85,4.72,10.17,9.38,3.99,9.38,3.99Z"/>
              <path class="cls-2" d="M24.39,53.47c-2.44,0-6.56-1.37-9.35-9.54l-.61-1.79,1.69.37c.16-.04.46-.12.63-.17.66-.19,1.06-.3,1.51.02.31.23.38.41.8,1.59.11.3.2.57.25.68,1.5,3.23,3.13,5.04,4.7,5.21,1.6.18,2.85-1.41,2.86-1.43l.06-.08c1.43-1.55,2.32-3.64,3.03-5.47l.37-.94.96.31c.08.02.31.06.55.11.95.18,1.14.22,1.41.49.34.35.82.84-1.25,4.68-.97,1.81-3.05,4.97-6.04,5.75-.36.09-.9.19-1.56.19Z"/>
            </g>
            <g>
              <path class="cls-2" d="M34.42,35.23c-.04.62-.78,5.32-1.02,5.47-.18.12-1.28-.35-1.58-.28l.83-4.04c.18-.11,1.69-1.23,1.77-1.15Z"/>
              <path class="cls-2" d="M30.44,41.86l1.26-6.14.39-.24s.16-.11.31-.22c1.49-1.06,2.1-1.49,2.79-.76l.32.34-.03.47c-.03.38-.23,1.76-.45,3.02-.48,2.79-.63,2.99-1.05,3.27-.5.33-1.02.18-1.64,0-.12-.03-.3-.08-.41-.11l-1.5.37Z"/>
            </g>
            <g>
              <path class="cls-2" d="M15.88,36.33l.82,4.05c-.02.07-1.4.35-1.47.32-.06-.02-.09-.06-.1-.12-.15-.64-1.14-5.1-.95-5.35.06-.08,1.52,1.07,1.71,1.1Z"/>
              <path class="cls-2" d="M15.23,41.75c-.13,0-.24-.01-.33-.04-.4-.13-.71-.46-.81-.88-1.31-5.52-1.03-5.88-.77-6.24.65-.88,1.51-.28,2.33.31.18.13.42.3.57.4l.56.08,1.02,5.04-.21.69-.42.22c-.13.07-1.26.42-1.95.42Z"/>
            </g>
          </g>
          <g>
            <g>
              <path class="cls-2" d="M23.53,22.34c-3.69.39-6.02,4.29-4.92,7.77,1.43,4.54,7.51,5.6,10.41,1.83,3.26-4.23-.2-10.16-5.49-9.6ZM28.65,31.21c-.17.26-.84,1.15-1.12,1.19-.12.02-.24-.07-.34-.05-.33.05-.65.24-1.03.26-.4.03-.88-.06-1.33.04-.36.08-.81.47-1.03.49-.25.02-.67-.15-.97-.07.07-.72-.26-.81-.7-.3-.21-.12-.7-.07-.84-.14-.22-.12-.77-.65-.95-.86-1.13-1.31-1.56-3.26-1.01-4.9.18.17,1.61,1.09,1.62,1.19,0,.04-.18.21-.2.31-.03.13.19.72.27.85.13.18.45.23.5.37.05.15-.02.38.02.56.06.32.29,1.42.53,1.56.66.4.09-.43.11-.54,0-.07.2-.07.26-.18.08-.16,0-.34.15-.58.12-.2.44-.35.54-.49.09-.13.45-1.07.4-1.17-.08-.17-.46-.22-.61-.33-.22-.15-.62-.65-.86-.72-.23-.07-1.11,0-1.15-.04-.06-.06-.12-.69-.15-.72-.11-.12-.54.41-.51-.04.03-.45.87-.4,1.25-.69.25-.19.38-.57.59-.71.24-.17.86-.11.65-.57-.04-.09-.34-.34-.45-.35-.31-.05-.47.62-.78.36-.21-.17-.03-.44,0-.64.01-.08-.05-.19-.04-.25.03-.13,1.24-.65,1.44-.7.2-.11.43-.13.65-.14,1.24-.13,2.84.17,3.81.98.21.18.18.2-.11.24-.8.11-1.45-.43-2.05.4-.81,1.15.79,1.13,1.33,1.69.34.35.33,1.11,1.06.92.33-.09.67-.81.98-.22.09.17.16.69.34.74.31.09.39-.61.53-.43.03.04.06.9.05,1.04-.04.93-.36,1.88-.86,2.66Z"/>
              <path class="cls-2" d="M24.32,35.3c-.42,0-.84-.04-1.26-.11-2.6-.46-4.69-2.28-5.47-4.76-.64-2.04-.32-4.25.87-6.07,1.14-1.74,2.95-2.86,4.96-3.08h0c2.92-.31,5.61,1.08,7.03,3.61,1.39,2.48,1.16,5.43-.58,7.7-1.33,1.73-3.38,2.71-5.54,2.71ZM23.44,31.71c.08.08.17.18.24.3.25-.15.55-.33.91-.4.42-.09.81-.08,1.12-.06.13,0,.25.01.37,0,.08,0,.2-.05.33-.09.18-.06.38-.13.63-.16.07-.01.14-.01.21-.01.17-.19.39-.48.5-.65h0c.34-.52.57-1.14.65-1.76-.21-.11-.36-.27-.47-.44-.02,0-.04.01-.06.02-.9.24-1.58-.13-2.04-1.08-.02-.04-.04-.09-.06-.13-.08-.05-.26-.13-.38-.18-.48-.2-1.2-.51-1.42-1.29-.14-.5-.03-1.02.34-1.55-.22,0-.44,0-.65.02-.03,0-.07,0-.1,0,.06.07.1.15.13.22.24.53.12.95.02,1.15-.25.53-.74.69-1.01.77,0,0,0,.01-.01.02-.06.09-.13.19-.21.3.34.14.6.4.86.65.05.05.1.1.15.14.01,0,.03,0,.04.01.26.09.74.27.97.78.36.79-.5,2.23-.51,2.24-.14.19-.31.32-.45.42,0,0,0,0,0,0-.02.13-.05.29-.12.45.02.09.04.19.04.3ZM26.97,25.49c.11.08.22.17.32.27.12.12.21.24.28.37.24-.15.56-.27.95-.2.02,0,.04,0,.06.01-.13-.24-.3-.48-.49-.71-.26.18-.56.22-.7.24-.15.02-.29.03-.42.03ZM20.43,25.26c-.07.09-.13.18-.19.27,0,0,0,0,0,0,.1-.04.2-.07.29-.09-.04-.05-.07-.11-.1-.18Z"/>
            </g>
            <g>
              <path class="cls-2" d="M24.68,26.23c.35-.07.73.19,1.04.3.43.15.62,0,.96.49.12.17.15.41.26.54s.37.19.42.37c.11.37-.31.62-.39.95-.11.49-.13.94-.38,1.43-.13.26-.53.51-.81.35-.11-.07-.43-.84-.43-1,0-.18.15-.39.14-.58,0-.04-.25-.7-.28-.73-.2-.24-.6.05-.94-.14-.8-.46-.22-1.84.41-1.96Z"/>
              <path class="cls-2" d="M25.98,31.77c-.27,0-.53-.07-.76-.21-.55-.34-.95-1.55-.93-1.94,0-.11.02-.21.04-.3-.18-.02-.38-.08-.58-.2-.69-.4-1.03-1.17-.89-2.02.13-.81.73-1.73,1.62-1.91.6-.12,1.09.11,1.42.26.06.03.12.06.18.08.06.02.11.03.15.03.41.07.88.19,1.33.86.11.16.18.31.22.44.21.14.48.38.6.78.21.71-.16,1.24-.34,1.49-.02.02-.03.04-.05.07-.02.1-.04.19-.06.29-.07.38-.15.82-.39,1.3-.21.43-.64.79-1.12.93-.15.04-.3.06-.44.06ZM25.63,29.83s0,0,0,0t0,0Z"/>
            </g>
            <g>
              <path class="cls-2" d="M24.75,23.82c-.08.13-.87.39-1.07.48s-.27.3-.53.26c-.34-.05-.07-.33-.12-.53-.04-.16-.5-.32-.16-.55.15-.1,1.49-.12,1.72-.08.2.04.25.27.16.42Z"/>
              <path class="cls-2" d="M23.22,25.63c-.07,0-.15,0-.23-.02-.51-.08-.77-.38-.89-.55-.16-.25-.2-.5-.19-.71-.14-.19-.26-.46-.23-.8.02-.22.12-.64.59-.96.63-.43,2.5-.25,2.52-.24.42.08.77.35.95.74.19.41.17.88-.06,1.26-.24.41-.63.57-1.36.84-.05.02-.1.04-.13.05-.17.14-.49.38-.97.38ZM23.72,23.71c0,.07.02.15.04.22.01-.04.02-.09.03-.14-.02-.03-.05-.05-.08-.08Z"/>
            </g>
          </g>
        </g>
        <g class="cls-3">
          <g>
            <path class="cls-6" d="M7.33,28.31c-2.23-2.53-5.16-6.79-4.59-10.32.73-4.53,6.07-5.21,9.82-4.88.31.03,2.47.27,2.56.36.06.06-.44,1.36-.43,1.59-2.71-.48-7.3-.92-9.4,1.23-2.97,3.04,1.09,8.41,3.2,10.8.48.22.91.66,1.08,1.15,4.22,4.3,8.7,7.36,14.11,9.98-.65.3-1.94.75-1.94.75-4.91-2.56-9.35-5.32-13.3-9.27l-.03-.16c-.34-.39-.75-.85-1.08-1.23Z"/>
            <path class="cls-6" d="M27.03,39.35c4.07,1.51,8.58,2.97,12.95,2.26s4.93-3.71,3.33-7.27c-2.02.21-3.32-1.89-2.35-3.66-.25-.37-.55-.72-.92-.99v-.16c.41-.42.83-.86,1.22-1.3.16.25.97,1.4,1.15,1.48.53.23,1.11-.18,1.91.4.73.54,1.02,1.44.88,2.32-.05.31-.42.82-.42.95,0,.17.35.78.44,1.01,2.57,7.29-3.01,9.56-9.26,9.05-4.36-.36-7.22-1.72-11.19-3.11l2.25-.99Z"/>
            <path class="cls-6" d="M24.33,16.41h.33c.6.28,1.16.57,1.68.86-.03.16.26.23.39.3,1.77.96,3.56,1.87,5.24,2.98.08.1.35,2.04.29,2.13-2.47-1.67-5.07-3.18-7.78-4.43-.08-.04-.18-.02-.21-.03-.68-.06-1.51-.42-2.02-.86-1.26-.5-2.5-1-3.8-1.42-.14-.04-.78-.14-.81-.17-.07-.07.34-1.53.48-1.58.12-.04,2.08.61,2.37.71,1.27.44,2.62.97,3.85,1.51Z"/>
            <path class="cls-6" d="M40.12,27.08c.35.57-.42,1.07-1.15,1.23-.13-.31-.47-.6-.72-.83-.86-.82-1.78-1.59-2.7-2.35-.18-.4-.08-.84-.11-1.26-.06-.87-.45-1.22.5-.5,1.49,1.12,2.84,2.42,4.19,3.7Z"/>
          </g>
          <g>
            <path class="cls-4" d="M40.12,27.08c1.99-2.26,5.09-6.37,3.97-9.55s-5.9-3.05-8.54-2.77c-.26.03-1.7.35-1.77.29-.02-.02-.07-.45-.11-.58-.05-.16-.32-.85-.32-.9,0-.11,1.21-.28,1.41-.31,3.35-.48,8.65-.37,10.5,3.02,2.12,3.89-.81,8.78-3.35,11.64-.48.53-2.17,2.12-2.25,2.19-3.8,3.67-8.03,6.52-12.72,8.91-.1.05-8.28,3.99-13.88,4.37-.16.05-.37.53-.52.71-.84.97-2.49.99-3.35.03-.15-.16-.35-.67-.43-.72-.14-.09-.94-.18-1.2-.24-6.03-1.59-5.78-6.54-3.04-11.13.8-1.33,1.8-2.54,2.8-3.73.43.14,1,.78,1.08,1.23v.21c-3.25,3.45-7.08,10.71.23,11.9.94-1.85,3.47-1.9,4.4-.02,3.01-.3,6.01-1.31,8.92-2.35,0,0,.93-.31,2.23-.87,5.44-2.47,10.59-5.8,14.77-10.09.39-.4.79-.76,1.15-1.23Z"/>
            <path class="cls-4" d="M22.24,17.35c.7.28,1.4.58,2.02.86-1.96.86-3.86,1.88-5.69,3-.62.38-1.46,1.05-2.06,1.33-.09.04-.14.1-.26.07.22-.45.09-1.73.36-2.05,1.81-1.18,3.7-2.21,5.62-3.21Z"/>
            <path class="cls-4" d="M24.33,16.41c1.06-.49,2.15-.94,3.25-1.33.33-.12,2.69-.96,2.81-.87.09.06.56,1.49.5,1.55-.85.21-1.71.46-2.54.74-.61.21-1.4.64-2,.77-.09.02-.17.06-.27.02-.58-.29-1.16-.62-1.75-.88Z"/>
            <path class="cls-4" d="M8.48,27.08c1.5-1.47,3.04-2.9,4.76-4.11l-.16,2.15c-1.26.94-2.38,2.03-3.52,3.11-.36-.36-.72-.75-1.08-1.15Z"/>
          </g>
          <path class="cls-1" d="M7.82,0v26.28s.9,1.25,2.64,2.86l28.41-.73s.93-.87,1.84-2.01l.21-1.96V0H7.82Z"/>
          <g>
            <path class="cls-7" d="M33.13,32.34l.15-2.34c.07-5.17-.34-10.41-1.88-15.36-1-3.22-3.74-9.98-8.13-8.77-.18.05-1.1.44-1.16.53-.06.1.11.39.13.53.13,1.2-.66,2.33-1.91,2.41-.27.02-.7-.15-.86,0-.11.1-.61,1.08-.72,1.3-2.96,5.85-3.62,13.8-3.42,20.29,0,.24.17,1.28.07,1.4-.04.05-.92-.63-1-.69-.34-.28-.61-.38-.66-.86-.18-1.75-.04-4.54.08-6.34.3-4.61,1.3-10.02,3.34-14.18.21-.42,1.05-1.71,1.12-1.99.06-.24-.12-.62-.13-.92-.03-.99.68-2.01,1.7-2.13.34-.04.84.1,1.06.06.17-.03,1.23-.74,1.59-.87,2.6-.96,4.95.31,6.65,2.25,3.99,4.56,5.53,13.44,5.73,19.35.05,1.33.13,3.4-.01,4.68-.02.18-.06.41-.16.56-.05.07-1.19.92-1.32.99-.08.05-.13.11-.24.09Z"/>
            <path class="cls-7" d="M27.72,49.06c1.52-1.64,2.44-3.75,3.24-5.81.2.07,1.46.28,1.52.33.15.16-1.22,3.05-1.43,3.44-1.1,2.05-3.01,4.6-5.37,5.22-5.05,1.32-8.3-4.74-9.63-8.66.23.05,1.52-.41,1.58-.36.08.06.59,1.59.71,1.85,4.72,10.17,9.38,3.99,9.38,3.99Z"/>
            <path class="cls-7" d="M34.42,35.23c-.04.62-.78,5.32-1.02,5.47-.18.12-1.28-.35-1.58-.28l.83-4.04c.18-.11,1.69-1.23,1.77-1.15Z"/>
            <path class="cls-7" d="M15.88,36.33l.82,4.05c-.02.07-1.4.35-1.47.32-.06-.02-.09-.06-.1-.12-.15-.64-1.14-5.1-.95-5.35.06-.08,1.52,1.07,1.71,1.1Z"/>
          </g>
          <g>
            <path class="cls-8" d="M23.53,22.34c-3.69.39-6.02,4.29-4.92,7.77,1.43,4.54,7.51,5.6,10.41,1.83,3.26-4.23-.2-10.16-5.49-9.6ZM28.65,31.21c-.17.26-.84,1.15-1.12,1.19-.12.02-.24-.07-.34-.05-.33.05-.65.24-1.03.26-.4.03-.88-.06-1.33.04-.36.08-.81.47-1.03.49-.25.02-.67-.15-.97-.07.07-.72-.26-.81-.7-.3-.21-.12-.7-.07-.84-.14-.22-.12-.77-.65-.95-.86-1.13-1.31-1.56-3.26-1.01-4.9.18.17,1.61,1.09,1.62,1.19,0,.04-.18.21-.2.31-.03.13.19.72.27.85.13.18.45.23.5.37.05.15-.02.38.02.56.06.32.29,1.42.53,1.56.66.4.09-.43.11-.54,0-.07.2-.07.26-.18.08-.16,0-.34.15-.58.12-.2.44-.35.54-.49.09-.13.45-1.07.4-1.17-.08-.17-.46-.22-.61-.33-.22-.15-.62-.65-.86-.72-.23-.07-1.11,0-1.15-.04-.06-.06-.12-.69-.15-.72-.11-.12-.54.41-.51-.04.03-.45.87-.4,1.25-.69.25-.19.38-.57.59-.71.24-.17.86-.11.65-.57-.04-.09-.34-.34-.45-.35-.31-.05-.47.62-.78.36-.21-.17-.03-.44,0-.64.01-.08-.05-.19-.04-.25.03-.13,1.24-.65,1.44-.7.2-.11.43-.13.65-.14,1.24-.13,2.84.17,3.81.98.21.18.18.2-.11.24-.8.11-1.45-.43-2.05.4-.81,1.15.79,1.13,1.33,1.69.34.35.33,1.11,1.06.92.33-.09.67-.81.98-.22.09.17.16.69.34.74.31.09.39-.61.53-.43.03.04.06.9.05,1.04-.04.93-.36,1.88-.86,2.66Z"/>
            <path class="cls-8" d="M24.68,26.23c.35-.07.73.19,1.04.3.43.15.62,0,.96.49.12.17.15.41.26.54s.37.19.42.37c.11.37-.31.62-.39.95-.11.49-.13.94-.38,1.43-.13.26-.53.51-.81.35-.11-.07-.43-.84-.43-1,0-.18.15-.39.14-.58,0-.04-.25-.7-.28-.73-.2-.24-.6.05-.94-.14-.8-.46-.22-1.84.41-1.96Z"/>
            <path class="cls-8" d="M24.75,23.82c-.08.13-.87.39-1.07.48s-.27.3-.53.26c-.34-.05-.07-.33-.12-.53-.04-.16-.5-.32-.16-.55.15-.1,1.49-.12,1.72-.08.2.04.25.27.16.42Z"/>
          </g>
        </g>
      </g>
    </g>
  </g>
</svg>