<?xml version="1.0" encoding="UTF-8"?>
<svg id="Layer_2" data-name="Layer 2" xmlns="http://www.w3.org/2000/svg" viewBox="0 0 15.63 21.67">
  <defs>
    <style>
      .cls-1 {
        opacity: .8;
      }

      .cls-1, .cls-2 {
        fill: #fff;
      }

      .cls-3 {
        fill: #606060;
      }
    </style>
  </defs>
  <g id="Layer_1-2" data-name="Layer 1">
    <path class="cls-3" d="M8.74,8.93s-.15.03-.18.04c.05-.04.12-.04.18-.04Z"/>
    <g>
      <path class="cls-2" d="M4.33,13.82c1-.1,2-.43,2.96-.78,0,0,.31-.1.74-.29,1.81-.82,3.52-1.93,4.91-3.35-.04-.1-.16-.2-.24-.28-.29-.27-.59-.53-.9-.78-.06-.13-.03-.28-.04-.42-.02-.29-.15-.4.17-.17.49.37.94.8,1.39,1.23.08-.1.17-.2.27-.32v-3.68c-.6-.16-1.3-.14-1.79-.09-.09,0-.57.12-.59.1,0,0-.02-.15-.04-.19-.02-.05-.11-.28-.11-.3,0-.04.4-.09.47-.1.59-.09,1.36-.11,2.05.05V0H2.6v4.44c.52-.12,1.08-.13,1.57-.09.1,0,.82.09.85.12.02.02-.15.45-.14.53-.62-.11-1.54-.21-2.29-.02v3.74c.07.1.16.2.23.28.5-.49,1.01-.96,1.58-1.36l-.05.71c-.42.31-.79.67-1.17,1.03,1.4,1.43,2.89,2.44,4.69,3.31-.22.1-.64.25-.64.25-1.63-.85-3.11-1.77-4.42-3.08v-.05s-.01.07-.01.07c-.07.07-.14.16-.21.24v2.93s-.32.31-.29.55c0,.02,0,.05,0,.07.17.07.35.13.59.17.31-.62,1.15-.63,1.46,0ZM5.11,10.74s-.31-.21-.33-.23c-.11-.09-.2-.13-.22-.28-.06-.58-.01-1.51.03-2.11.1-1.53.43-3.33,1.11-4.71.07-.14.35-.57.37-.66.02-.08-.04-.21-.04-.3-.01-.33.23-.67.56-.71.11-.01.28.03.35.02.06,0,.41-.24.53-.29.86-.32,1.64.1,2.21.75,1.33,1.51,1.84,4.46,1.9,6.43.02.44.04,1.13,0,1.55,0,.06-.02.14-.05.18-.02.02-.4.3-.44.33-.03.02-.04.04-.08.03l.05-.78c.02-1.72-.11-3.46-.62-5.1-.33-1.07-1.24-3.31-2.7-2.91-.06.02-.37.15-.39.18-.02.03.04.13.04.18.04.4-.22.77-.63.8-.09,0-.23-.05-.29,0-.04.03-.2.36-.24.43-.98,1.94-1.2,4.58-1.14,6.74,0,.08.05.43.02.47ZM5.4,7.51c.07-.15.03-.58.12-.68.6-.39,1.23-.74,1.87-1.07-.42-.17-.83-.33-1.26-.47-.05-.01-.26-.05-.27-.06-.02-.02.11-.51.16-.52.04-.01.69.2.79.24.42.14.87.32,1.28.5.35-.16.71-.31,1.08-.44.11-.04.89-.32.93-.29.03.02.18.5.17.52-.28.07-.57.15-.84.25-.2.07-.46.21-.66.26,0,.05.09.08.13.1.59.32,1.18.62,1.74.99.03.03.12.68.1.71-.82-.55-1.68-1.05-2.59-1.47-.03-.01-.06,0-.07-.01-.65.29-1.28.63-1.89,1-.2.12-.48.35-.68.44-.03.01-.05.03-.08.02ZM6.18,10c-.36-1.16.41-2.45,1.63-2.58,1.76-.19,2.91,1.78,1.82,3.19-.96,1.25-2.98.9-3.46-.61ZM4.71,11.7s.51.36.57.37l.27,1.34s-.47.12-.49.11c-.02,0-.03-.02-.03-.04-.05-.21-.38-1.69-.32-1.78Z"/>
      <path class="cls-2" d="M14.03,14.97l-.44-.57v-.06c-.49.11-1.06.14-1.64.1-1.45-.12-2.4-.57-3.72-1.03l.75-.33c1.35.5,2.85.99,4.3.75.12-.02.21-.05.31-.08v-2.77c-.11-.22-.12-.48,0-.74v-.06c-.08-.11-.17-.22-.28-.3-.07.07-.13.12-.14.13-1.26,1.22-2.67,2.16-4.22,2.96-.03.02-2.75,1.32-4.61,1.45-.05.02-.12.18-.17.23-.28.32-.83.33-1.11.01-.05-.05-.12-.22-.14-.24-.05-.03-.31-.06-.4-.08-.11-.03-.19-.07-.28-.11,0,0,0,.01,0,.01.1.03.1.39.36.55.26.16-.05.7-.05.99s.21.49.21.49c0,0-.18.34-.31.47-.13.13-.13.1-.18.31-.05.21.29.75.05.73-.23-.03-.49-.23-.47.03s-.18.81-.62.83c-.44.03-.65.47-.42.57.23.1-.1.47-.05.7.05.23-.23.23-.21.36.03.13-.16.42-.42.78-.26.36.86.21.42.26-.45.05-.39-.13-.52.05-.13.18.26.21.47.29.21.08.31-.03.52-.13s-.18-.31-.16-.7c.03-.39.42.03.57.23.16.21.26-.1.6-.1s-.18.49.13.42c.31-.08.1-.86.23-.86s0,.52.21.52.21-.29.47-.29.18.26.7.26.36.65.7.65-.03-.83.57-.86c.6-.03.44-.36.75-.36s.16.39.39.39.21.31.36.31.03-.23.13-.26.29-.29.29-.65.44-.03.27-.21c-.17-.18.12-.29.36-.29s-.13-.44.05-.44.36.36.39.65c.03.29.68.29.7.47.03.18.31.36.22.13-.09-.23.64-.1.64-.57s.13-.65.26-.86c.13-.21.03-.18.23-.18s.36-.08.6-.44c.23-.36.13-.62.39-.62s.36-.23.57-.49c.21-.26-.03-.44-.05-.73-.03-.29-.03-.39.23-.39s.73.26.86.26.75-.39,1.07-.57c.31-.18.42-.23.39-.31-.03-.08-.1-.65-.1-.65ZM10.85,12.08c.06-.04.56-.41.59-.38-.01.21-.26,1.77-.34,1.82-.06.04-.42-.12-.52-.09l.28-1.34ZM10.31,15.62c-.37.68-1,1.53-1.78,1.73-1.68.44-2.76-1.57-3.2-2.88.08.02.5-.14.52-.12.03.02.2.53.24.61,1.57,3.38,3.12,1.32,3.12,1.32.5-.54.81-1.24,1.08-1.93.07.02.49.09.5.11.05.05-.41,1.01-.47,1.14Z"/>
      <path class="cls-2" d="M8.69,10.83c.13,0,.23-.07.34-.09.03,0,.07.02.11.02.09-.01.32-.31.37-.4.17-.26.27-.57.28-.88,0-.05,0-.33-.02-.35-.05-.06-.07.17-.18.14-.06-.02-.08-.19-.11-.25-.1-.2-.22.05-.33.07-.24.06-.24-.19-.35-.31-.18-.19-.71-.18-.44-.56.2-.28.41-.1.68-.13.1-.01.11-.02.04-.08-.32-.27-.86-.37-1.27-.33-.07,0-.15.01-.22.05-.07.02-.47.19-.48.23,0,.02.02.05.01.08-.01.07-.07.16,0,.21.1.09.16-.13.26-.12.04,0,.13.09.15.12.07.15-.14.13-.22.19-.07.05-.11.17-.19.24-.13.1-.4.08-.42.23-.01.15.13-.03.17.01,0,0,.03.22.05.24.01.01.31-.01.38.01.08.02.21.19.29.24.05.04.18.05.2.11.02.03-.1.35-.13.39-.03.05-.14.09-.18.16-.05.08-.02.14-.05.19-.02.04-.08.04-.09.06,0,.04.18.31-.04.18-.08-.05-.16-.41-.18-.52-.01-.06.01-.13,0-.19-.02-.04-.12-.06-.16-.12-.03-.04-.1-.24-.09-.28,0-.03.07-.09.07-.1,0-.03-.48-.34-.54-.39-.18.55-.04,1.19.33,1.63.06.07.24.25.32.29.05.02.21,0,.28.05.15-.17.26-.14.23.1.1-.03.24.03.32.02.07,0,.22-.14.34-.16.15-.03.31,0,.44-.01ZM7.86,8.07c-.07.03-.09.1-.18.09-.11-.02-.02-.11-.04-.18-.01-.05-.16-.11-.05-.18.05-.03.5-.04.57-.03.07.01.08.09.05.14-.03.04-.29.13-.36.16ZM8.37,9.41c-.07-.08-.2.02-.31-.05-.27-.15-.07-.61.14-.65.12-.02.24.06.35.1.14.05.21,0,.32.16.04.06.05.14.08.18.03.04.12.06.14.12.04.12-.1.2-.13.32-.04.16-.04.31-.12.47-.04.09-.18.17-.27.11-.04-.02-.14-.28-.14-.33,0-.06.05-.13.04-.19,0-.01-.08-.23-.09-.24Z"/>
    </g>
    <path class="cls-2" d="M15.28,11.13s-.01-.02-.02-.03c.04-.08.09-.17.1-.27.07-.44-.1-.87-.43-1.11-.26-.19-.5-.18-.64-.18,0,0-.02,0-.03,0-.01-.02-.03-.04-.05-.06.53-.61,2.05-2.56,1.13-4.24-.82-1.5-3.15-1.29-3.85-1.19-.15.02-.27.04-.38.07-.3-.82-.68-1.57-1.18-2.13-.76-.87-1.71-1.18-2.6-.84-.09.03-.19.09-.36.19-.04.02-.09.05-.13.07-.01,0-.02,0-.03,0-.08-.01-.18-.02-.29-.01-.5.06-.89.54-.88,1.07,0,.08.02.15.03.21,0,0,0,.01,0,.02-.04.07-.11.19-.16.27-.07.12-.14.23-.17.3-.13.28-.25.56-.35.85-.15-.04-.39-.07-.82-.11-2.06-.18-3.42.54-3.64,1.92-.21,1.3.8,2.75,1.41,3.49-.26.31-.54.66-.77,1.05-.65,1.08-.83,2.11-.51,2.88.27.65.85,1.1,1.74,1.34.04.01.11.02.19.04.02,0,.04,0,.07.01.03.06.07.12.11.17.2.22.5.35.81.35,0,0,0,0,.01,0,.32,0,.62-.14.82-.37.03-.04.06-.08.09-.13.16-.02.33-.04.5-.07.92,2.63,2.27,3.08,3.07,3.08.22,0,.4-.03.52-.06.99-.26,1.68-1.31,2.01-1.91.3-.55.43-.89.48-1.11.26.05.52.08.81.11.2.02.4.02.59.02,1.23,0,2.17-.35,2.67-1,.48-.62.54-1.46.18-2.5-.01-.04-.04-.1-.08-.17ZM5.69,3.41c.07-.14.35-.57.37-.66.02-.08-.04-.21-.04-.3-.01-.33.23-.67.56-.71.11-.01.28.03.35.02.06,0,.41-.24.53-.29.86-.32,1.64.1,2.21.75,1.33,1.51,1.84,4.46,1.9,6.43.02.44.04,1.13,0,1.55,0,.06-.02.14-.05.18-.02.02-.4.3-.44.33-.03.02-.04.04-.08.03l.05-.78c.02-1.72-.11-3.46-.62-5.1-.33-1.07-1.24-3.31-2.7-2.91-.06.02-.37.15-.39.18-.02.03.04.13.04.18.04.4-.22.77-.63.8-.09,0-.23-.05-.29,0-.04.03-.2.36-.24.43-.98,1.94-1.2,4.58-1.14,6.74,0,.08.05.43.02.47-.01.02-.31-.21-.33-.23-.11-.09-.2-.13-.22-.28-.06-.58-.01-1.51.03-2.11.1-1.53.43-3.33,1.11-4.71ZM11.47,5.32c.06-.01.12-.02.19-.04.08-.02.15-.03.18-.03.5-.05,2.17-.16,2.47.69.21.59-.16,1.48-1.02,2.54-.36-.34-.74-.69-1.14-1-.1-.08-.21-.15-.32-.18-.07-.65-.19-1.32-.35-1.98ZM5.45,10.36s0-.08-.01-.1c-.02-.72-.01-1.55.06-2.41.06-.01.11-.03.13-.04.15-.07.32-.19.48-.3.09-.06.17-.12.24-.16.6-.37,1.17-.66,1.73-.92.81.38,1.63.85,2.44,1.39l.1.07c.05.65.09,1.32.08,2.04l-.06.93c-.8.56-1.68,1.06-2.63,1.5-.96-.47-1.8-.96-2.58-1.52.04-.12.05-.26.02-.48ZM8.13,6.06s-.06,0-.07-.01c-.65.29-1.28.63-1.89,1-.2.12-.48.35-.68.44-.03.01-.05.03-.08.02.07-.15.03-.58.12-.68.6-.39,1.23-.74,1.87-1.07-.42-.17-.83-.33-1.26-.47-.05-.01-.26-.05-.27-.06-.02-.02.11-.51.16-.52.04-.01.69.2.79.24.42.14.87.32,1.28.5.35-.16.71-.31,1.08-.44.11-.04.89-.32.93-.29.03.02.18.5.17.52-.28.07-.57.15-.84.25-.2.07-.46.21-.66.26,0,.05.09.08.13.1.59.32,1.18.62,1.74.99.03.03.12.68.1.71-.82-.55-1.68-1.05-2.59-1.47ZM5.71,6.3c.04-.24.1-.47.15-.7.02,0,.03,0,.06.01.04,0,.08.01.09.02.18.06.35.13.52.19-.27.15-.54.31-.82.48ZM6.24,4.4c.09-.24.19-.48.31-.7.04-.09.09-.17.12-.24.03,0,.07,0,.11,0,.28-.02.53-.14.71-.36.18-.21.27-.49.25-.78.04-.01.07-.03.08-.03.99-.27,1.72,1.2,2.07,2.1-.17.04-.42.13-.85.28-.31.11-.63.25-.96.39-.41-.17-.81-.33-1.17-.45-.33-.11-.54-.18-.68-.22ZM10.41,6.28c-.28-.17-.56-.33-.84-.48.25-.08.47-.15.69-.2.06.22.11.45.15.68ZM4.31,7.26l-.12.08c-.5.35-.93.75-1.34,1.14-.57-.7-1.54-2.11-.84-2.83.41-.42,1.36-.53,2.64-.33-.17.7-.28,1.36-.34,1.93ZM10.31,15.62c-.37.68-1,1.53-1.78,1.73-1.68.44-2.76-1.57-3.2-2.88.08.02.5-.14.52-.12.03.02.2.53.24.61,1.57,3.38,3.12,1.32,3.12,1.32.5-.54.81-1.24,1.08-1.93.07.02.49.09.5.11.05.05-.41,1.01-.47,1.14ZM6.25,14.38c.68-.2,1.33-.45,1.84-.66h.02c.26.1.5.19.74.27.36.13.7.25,1.05.37-.23.58-.51,1.21-.96,1.69l-.02.03s-.42.53-.95.47c-.52-.06-1.06-.66-1.56-1.73-.02-.04-.05-.13-.08-.22-.03-.09-.06-.16-.08-.22ZM11.95,14.43c-1.45-.12-2.4-.57-3.72-1.03l.75-.33c1.35.5,2.85.99,4.3.75,1.47-.24,1.64-1.23,1.11-2.41-.67.07-1.1-.63-.78-1.21-.08-.12-.18-.23-.29-.32-.07.07-.13.12-.14.13-1.26,1.22-2.67,2.16-4.22,2.96-.03.02-2.75,1.32-4.61,1.45-.05.02-.12.18-.17.23-.28.32-.83.33-1.11.01-.05-.05-.12-.22-.14-.24-.05-.03-.31-.06-.4-.08-2-.53-1.92-2.17-1.01-3.7.26-.44.6-.84.93-1.24-.74-.84-1.71-2.25-1.53-3.43.24-1.5,2.02-1.73,3.26-1.62.1,0,.82.09.85.12.02.02-.15.45-.14.53-.9-.16-2.42-.3-3.12.41-.99,1.01.36,2.79,1.06,3.59.5-.49,1.01-.96,1.58-1.36l-.05.71c-.42.31-.79.67-1.17,1.03,1.4,1.43,2.89,2.44,4.69,3.31-.22.1-.64.25-.64.25-1.63-.85-3.11-1.77-4.42-3.08v-.05s-.01.07-.01.07c-1.08,1.14-2.35,3.56.08,3.95.31-.62,1.15-.63,1.46,0,1-.1,2-.43,2.96-.78,0,0,.31-.1.74-.29,1.81-.82,3.52-1.93,4.91-3.35-.04-.1-.16-.2-.24-.28-.29-.27-.59-.53-.9-.78-.06-.13-.03-.28-.04-.42-.02-.29-.15-.4.17-.17.49.37.94.8,1.39,1.23.66-.75,1.69-2.11,1.32-3.17-.36-1.02-1.96-1.01-2.84-.92-.09,0-.57.12-.59.1,0,0-.02-.15-.04-.19-.02-.05-.11-.28-.11-.3,0-.04.4-.09.47-.1,1.11-.16,2.87-.12,3.49,1,.71,1.29-.27,2.92-1.11,3.86-.04.04-.1.1-.17.17.09.14.29.4.34.42.18.08.37-.06.63.13.24.18.34.48.29.77-.02.1-.14.27-.14.31,0,.06.12.26.14.34.85,2.42-1,3.17-3.08,3ZM9.7,12.95c.23-.13.47-.25.69-.38l-.12.57c-.19-.06-.38-.12-.57-.18ZM10.57,13.42l.28-1.34c.06-.04.56-.41.59-.38-.01.21-.26,1.77-.34,1.82-.06.04-.42-.12-.52-.09ZM11.5,13.43c.04-.15.08-.37.14-.71.07-.42.14-.88.15-1v-.11c.49-.35.94-.73,1.36-1.12-.02.26.04.53.19.75.19.28.48.46.81.5.15.38.24.84.06,1.18-.15.27-.48.45-.99.54-.57.09-1.15.06-1.72-.04ZM4.18,9.84c-.17-.15-.33-.3-.49-.46.17-.16.33-.31.5-.45-.01.35-.02.66,0,.91ZM6.49,12.95c-.21.07-.42.14-.64.2l-.13-.63c.26.15.51.3.76.43ZM5.55,13.41s-.47.12-.49.11c-.02,0-.03-.02-.03-.04-.05-.21-.38-1.69-.32-1.78.02-.03.51.36.57.37l.27,1.34ZM4.65,13.42s-.09.02-.14.03c-.22-.28-.54-.44-.89-.44h0c-.35,0-.68.16-.9.43-.45-.11-.72-.32-.82-.61-.21-.63.31-1.68.96-2.46.5.47,1.01.88,1.53,1.25-.04.17,0,.58.28,1.8ZM11.94,8.93c.17.15.34.29.51.44-.16.16-.33.31-.5.46,0-.29,0-.61,0-.9Z"/>
    <g>
      <path class="cls-1" d="M9.6,9.28c-.06-.02-.08-.19-.11-.25-.1-.2-.22.05-.33.07-.24.06-.24-.19-.35-.31-.18-.19-.71-.18-.44-.56.2-.28.41-.1.68-.13.1-.01.11-.02.04-.08-.32-.27-.86-.37-1.27-.33-.07,0-.15.01-.22.05-.07.02-.47.19-.48.23,0,.02.02.05.01.08-.01.07-.07.16,0,.21.1.09.16-.13.26-.12.04,0,.13.09.15.12.07.15-.14.13-.22.19-.07.05-.11.17-.19.24-.13.1-.4.08-.42.23-.01.15.13-.03.17.01,0,0,.03.22.05.24.01.01.31-.01.38.01.08.02.21.19.29.24.05.04.18.05.2.11,0,0,0,.01,0,.02l.62-.02c-.02-.06-.05-.13-.06-.14-.07-.08-.2.02-.31-.05-.27-.15-.07-.61.14-.65.12-.02.24.06.35.1.14.05.21,0,.32.16.04.06.05.14.08.18.03.04.12.06.14.12.03.1-.06.17-.1.26l.81-.02s0-.02,0-.03c0-.05,0-.33-.02-.35-.05-.06-.07.17-.18.14ZM8.22,7.91s-.29.13-.36.16c-.07.03-.09.1-.18.09-.11-.02-.02-.11-.04-.18-.01-.05-.16-.11-.05-.18.05-.03.5-.04.57-.03.07.01.08.09.05.14Z"/>
      <path class="cls-1" d="M6.42,8.92c-.07.22-.08.45-.06.68h.57c-.02-.08-.05-.16-.04-.18,0-.03.07-.09.07-.1,0-.03-.48-.34-.54-.39Z"/>
      <path class="cls-1" d="M2.6,0v8.73s.3.42.88.95l1.06-.03c0-.52.02-1.1.05-1.53.1-1.53.43-3.33,1.11-4.71.07-.14.35-.57.37-.66.02-.08-.04-.21-.04-.3-.01-.33.23-.67.56-.71.11-.01.28.03.35.02.06,0,.41-.24.53-.29.86-.32,1.64.1,2.21.75,1.33,1.51,1.84,4.46,1.9,6.43,0,.23.02.53.02.82l1.31-.03s.31-.29.61-.67l.07-.65V0H2.6Z"/>
      <path class="cls-1" d="M7.73,1.95c-.06.02-.37.15-.39.18-.02.03.04.13.04.18.04.4-.22.77-.63.8-.09,0-.23-.05-.29,0-.04.03-.2.36-.24.43-.89,1.76-1.15,4.08-1.14,6.1l1.02-.03c-.1-1.04.62-2.07,1.71-2.19,1.32-.14,2.3.94,2.24,2.09l.99-.03c0-1.56-.16-3.13-.62-4.62-.33-1.07-1.24-3.31-2.7-2.91Z"/>
    </g>
  </g>
</svg>